[CENTER][COLOR=#808000]Ladies vs. Ricky Bahl (2011) x264 DVDScr (Audio Cleaned) [ExDe$][/COLOR]

[IMG]http://www.djsrk.com/wp-content/uploads/2011/11/ladiesvsrickybahl1.jpg[/IMG]

Quote
 Format                           : Matroska
File size                        : 563 MiB
Duration                         : 2h 8mn
Overall bit rate                 : 613 Kbps
Movie name                       : Avidemux
Encoded date                     : UTC 2011-12-19 13:49:35
Writing application              : mkvmerge v4.4.0 ('Die Wiederkehr') built on Oct 31 2010 21:52:48
Writing library                  : libebml v1.0.0 + libmatroska v1.0.0

Video
ID                               : 1
Format                           : AVC
Format/Info                      : Advanced Video Codec
Format profile                   : High@L2.1
Format settings, CABAC           : Yes
Format settings, ReFrames        : 4 frames
Muxing mode                      : Header stripping
Codec ID                         : V_MPEG4/ISO/AVC
Duration                         : 2h 8mn
Bit rate                         : 520 Kbps
Width                            : 656 pixels
Height                           : 272 pixels
Display aspect ratio             : 2.40:1
Frame rate mode                  : Variable
Frame rate                       : 23.976 fps
Color space                      : YUV
Chroma subsampling               : 4:2:0
Bit depth                        : 8 bits
Scan type                        : Progressive
Bits/(Pixel*Frame)               : 0.122
Stream size                      : 478 MiB (85%)

Audio
ID                               : 2
Format                           : MPEG Audio
Format version                   : Version 2
Format profile                   : Layer 3
Mode                             : Joint stereo
Mode extension                   : Intensity Stereo + MS Stereo
Muxing mode                      : Header stripping
Codec ID                         : A_MPEG/L3
Codec ID/Hint                    : MP3
Duration                         : 2h 8mn
Bit rate mode                    : Constant
Bit rate                         : 80.0 Kbps
Channel(s)                       : 2 channels
Sampling rate                    : 24.0 KHz
Compression mode                 : Lossy
Delay relative to video          : -42ms
Stream size                      : 73.5 MiB (13%)





[IMG]http://i.imgur.com/AISM2.png[/IMG]
[IMG]http://i.imgur.com/A3mBr.png[/IMG]
[IMG]http://i.imgur.com/C797e.png[/IMG]
[IMG]http://i.imgur.com/nI0vA.png[/IMG]
[IMG]http://i.imgur.com/xSjZs.png[/IMG]
[IMG]http://i.imgur.com/8t7hq.png[/IMG]
[IMG]http://i.imgur.com/YnyoM.png[/IMG]
[IMG]http://i.imgur.com/P45IN.png[/IMG]
[IMG]http://i.imgur.com/THYtY.png[/IMG]
[IMG]http://i.imgur.com/fO3ex.png[/IMG]
[IMG]http://i.imgur.com/daDfh.png[/IMG][/CENTER]